<?xml version="1.0" standalone="no"?><!DOCTYPE svg PUBLIC "-//W3C//DTD SVG 1.1//EN" "http://www.w3.org/Graphics/SVG/1.1/DTD/svg11.dtd"><svg t="1732608739951" class="icon" viewBox="0 0 1024 1024" version="1.1" xmlns="http://www.w3.org/2000/svg" p-id="1322" xmlns:xlink="http://www.w3.org/1999/xlink" width="200" height="200"><path d="M511.71 840.57c-84.21 0-168.41-32.1-232.61-96.3-128.17-128.17-128.17-337.06 0-465.23 128.17-128.17 337.06-128.17 465.23 0 128.17 128.17 128.17 337.06 0 465.23-64.21 64.2-148.41 96.3-232.62 96.3zM313.99 709.38c109.1 109.09 286.35 109.09 395.44 0 109.1-109.1 109.1-286.35 0-395.45-109.09-109.09-286.34-109.09-395.44 0-109.09 109.1-109.09 286.35 0 395.45z m0 0" p-id="1323"></path><path d="M536.14 534.68v97.23c0 18.14-8.14 32.8-26.28 32.8s-23.03-14.66-23.03-32.8v-97.23h-98.16c-18.14 0-32.79-4.89-32.79-23.03s14.65-26.29 32.79-26.29h98.16V388.6c0-18.14 4.88-32.8 23.03-32.8 18.15 0 26.28 14.66 26.28 32.8v96.77h99.56c18.15 0 32.8 8.14 32.8 26.28 0 18.15-14.65 23.03-32.8 23.03h-99.56z m0 0" p-id="1324"></path></svg>