<?xml version="1.0" standalone="no"?><!DOCTYPE svg PUBLIC "-//W3C//DTD SVG 1.1//EN" "http://www.w3.org/Graphics/SVG/1.1/DTD/svg11.dtd"><svg t="1732608836634" class="icon" viewBox="0 0 1024 1024" version="1.1" xmlns="http://www.w3.org/2000/svg" p-id="1784" xmlns:xlink="http://www.w3.org/1999/xlink" width="200" height="200"><path d="M675.4 840.51H347.87c-41.84 0-75.87-33.88-75.87-75.3v-454.5c0-13.97 11.29-25.26 25.26-25.26h428.83c13.97 0 25.27 11.29 25.27 25.26v454.41c-0.09 41.59-34.04 75.39-75.96 75.39zM322.52 336.05V765.2c0 13.73 11.29 24.77 25.26 24.77h327.61c13.97 0 25.26-11.13 25.26-24.77V336.05H322.52z" p-id="1785"></path><path d="M798.22 336.05H224.96c-13.97 0-25.26-11.29-25.26-25.26 0-13.97 11.29-25.27 25.26-25.27h573.26c13.97 0 25.26 11.29 25.26 25.27 0.08 13.81-11.29 25.26-25.26 25.26z" p-id="1786"></path><path d="M638.03 336.05H385.15c-8.04 0-15.6-3.82-20.31-10.32-4.79-6.5-6.18-14.79-3.82-22.42l31.52-102.51c3.33-10.64 13.08-17.87 24.12-17.87h189.68a25.16 25.16 0 0 1 24.12 17.87l31.68 102.51c2.36 7.63 0.97 16-3.82 22.42-4.69 6.5-12.17 10.32-20.29 10.32z m-218.6-50.61h184.4l-16-51.99H435.44l-16.01 51.99z m24.78 437.76c-13.97 0-25.26-11.29-25.26-25.26V428c0-13.97 11.29-25.26 25.26-25.26s25.26 11.29 25.26 25.26v269.77c-0.08 13.98-11.37 25.43-25.26 25.43z m134.86 0c-13.97 0-25.27-11.29-25.27-25.26V428c0-13.97 11.29-25.26 25.27-25.26 13.97 0 25.26 11.29 25.26 25.26v269.77c0.07 13.98-11.38 25.43-25.26 25.43z" p-id="1787"></path></svg>