<?xml version="1.0" standalone="no"?><!DOCTYPE svg PUBLIC "-//W3C//DTD SVG 1.1//EN" "http://www.w3.org/Graphics/SVG/1.1/DTD/svg11.dtd"><svg t="1732608814303" class="icon" viewBox="0 0 1024 1024" version="1.1" xmlns="http://www.w3.org/2000/svg" p-id="1629" xmlns:xlink="http://www.w3.org/1999/xlink" width="200" height="200"><path d="M832.64 552.02c-9.34-9.34-24.49-9.34-33.83 0L494.06 856.68c-9.34 9.33-9.34 24.49 0 33.83s24.5 9.34 33.83 0l304.66-304.66c9.42-9.34 9.42-24.5 0.09-33.83z m0 0" p-id="1630"></path><path d="M528.7 856.76L223.88 551.94c-9.34-9.34-24.5-9.34-33.83 0-9.34 9.34-9.34 24.5 0 33.83l304.82 304.82c9.34 9.34 24.5 9.34 33.83 0 9.33-9.33 9.33-24.49 0-33.83z m0 0M832.64 189.74c-9.34-9.34-24.49-9.34-33.83 0L494.06 494.4c-9.34 9.34-9.34 24.5 0 33.83 9.34 9.34 24.5 9.34 33.83 0l304.66-304.66c9.42-9.33 9.42-24.49 0.09-33.83z m0 0" p-id="1631"></path><path d="M528.7 494.49L223.88 189.67c-9.34-9.34-24.5-9.34-33.83 0-9.34 9.34-9.34 24.5 0 33.83l304.82 304.82c9.34 9.34 24.5 9.34 33.83 0 9.33-9.34 9.33-24.5 0-33.83z m0 0" p-id="1632"></path></svg>