<?xml version="1.0" standalone="no"?><!DOCTYPE svg PUBLIC "-//W3C//DTD SVG 1.1//EN" "http://www.w3.org/Graphics/SVG/1.1/DTD/svg11.dtd"><svg t="1733901086480" class="icon" viewBox="0 0 1024 1024" version="1.1" xmlns="http://www.w3.org/2000/svg" p-id="2288" xmlns:xlink="http://www.w3.org/1999/xlink" width="200" height="200"><path d="M899.584 969.728H124.416c-22.528 0-40.96-18.432-40.96-40.96V368.64c0-22.528 18.432-40.96 40.96-40.96h206.848v61.44H144.896v518.656h734.208V389.12h-199.68v-61.44h220.16c22.528 0 40.96 18.432 40.96 40.96v559.616c0 23.04-18.432 41.472-40.96 41.472z" fill="#707070" p-id="2289"></path><path d="M300.544 358.4a30.72 30.72 0 1 0 61.44 0 30.72 30.72 0 1 0-61.44 0zM303.104 254.464a30.72 30.72 0 1 0 61.44 0 30.72 30.72 0 1 0-61.44 0zM662.016 256a30.72 30.72 0 1 0 61.44 0 30.72 30.72 0 1 0-61.44 0zM481.792 85.504a30.72 30.72 0 1 0 61.44 0 30.72 30.72 0 1 0-61.44 0zM648.704 358.4a30.72 30.72 0 1 0 61.44 0 30.72 30.72 0 1 0-61.44 0zM515.584 713.728h-5.12c-15.36 0-28.16-12.8-28.16-28.16V149.504c0-15.36 12.8-28.16 28.16-28.16h5.12c15.36 0 28.16 12.8 28.16 28.16v536.064c0 15.36-12.8 28.16-28.16 28.16z" fill="#707070" p-id="2290"></path><path d="M314.332 230.605L491.761 62.776l42.22 44.636-177.43 167.834z" fill="#707070" p-id="2291"></path><path d="M491.32 107.581l42.225-44.636L710.973 230.78l-42.224 44.636z" fill="#707070" p-id="2292"></path></svg>