<?xml version="1.0" standalone="no"?><!DOCTYPE svg PUBLIC "-//W3C//DTD SVG 1.1//EN" "http://www.w3.org/Graphics/SVG/1.1/DTD/svg11.dtd"><svg t="1732608855042" class="icon" viewBox="0 0 1024 1024" version="1.1" xmlns="http://www.w3.org/2000/svg" p-id="1939" xmlns:xlink="http://www.w3.org/1999/xlink" width="200" height="200"><path d="M558.05 511.63l273.09-273.09c13.16-13.16 13.16-32.9 0-46.07-13.16-13.16-32.9-13.16-46.06 0l-273.1 273.1-273.07-273.09c-13.16-13.16-32.9-13.16-46.07 0-13.16 13.16-13.16 32.9 0 46.07l273.08 273.08-273.08 273.09c-13.16 13.16-13.16 32.9 0 46.06 6.58 6.58 13.17 9.87 23.03 9.87 9.87 0 16.46-3.29 23.03-9.87L511.98 557.7l273.09 273.08c6.57 6.58 16.45 9.87 23.03 9.87s16.46-3.29 23.03-9.87c13.16-13.16 13.16-32.9 0-46.06L558.05 511.63z" p-id="1940"></path></svg>